<?xml version="1.0" encoding="UTF-8"?>
<svg id="Capa_5" data-name="Capa 5" xmlns="http://www.w3.org/2000/svg" viewBox="0 0 183.07 90.04">
  <defs>
    <style>
      .cls-1, .cls-2 {
        fill: #fff;
      }

      .cls-3 {
        letter-spacing: .02em;
      }

      .cls-2 {
        font-family: SunfloraRegular, Sunflora;
        font-size: 36px;
      }
    </style>
  </defs>
  <text class="cls-2" transform="translate(0 32.17)"><tspan x="0" y="0">Ca</tspan><tspan class="cls-3" x="41.69" y="0">s</tspan><tspan x="58" y="0">a de las </tspan></text>
  <g>
    <path class="cls-1" d="m29.12,38.36v12.79h-.76c-1.56-12.25-13.67-11.64-13.67-11.64h-1.56v21.67h1.56s6.88.27,7.68-6.93h.76v15.14h-.76c-.8-7.2-7.68-6.93-7.68-6.93h-1.56v23.28h-6.48v-47.38h22.47Z"/>
    <path class="cls-1" d="m55.64,71.13v14.6h-22.2v-47.38h6.48v46.23h1.61s11.84,0,13.36-13.46h.76Z"/>
    <path class="cls-1" d="m87.72,62.38c0,13.39-5.58,23.96-15.41,23.96s-15.41-10.57-15.41-23.96,5.58-24.63,15.41-24.63,15.41,11.31,15.41,24.63Zm-7.73,0c0-18.44-2.41-23.49-7.68-23.49s-7.77,5.05-7.77,23.49,2.46,22.81,7.77,22.81,7.68-4.31,7.68-22.81Z"/>
    <path class="cls-1" d="m120.32,84.59v1.14h-4.11c-7.95-.07-6.79-.07-9.92-14.67-1.47-6.93-5.58-6.93-5.58-6.93h-2.1v21.6h-6.48v-47.38h7.86c8.89,0,15.14,1.62,15.14,12.85,0,8.21-3.4,11.24-8.71,12.18,2.9-.47,6.48,2.49,8.67,14.6.89,5.11,4.06,6.46,5.23,6.59Zm-12.46-33.38c0-11.71-3.53-11.71-7.86-11.71h-1.38v23.49h1.38c4.33,0,7.86-.07,7.86-11.78Z"/>
    <path class="cls-1" d="m146.07,71.06v14.67h-22.56v-47.38h21.98v12.79h-.76c-1.03-11.64-13.13-11.64-13.13-11.64h-1.61v21.74h1.61s6.79,0,7.24-7h.76v15.14h-.76c-.45-7-7.24-7-7.24-7h-1.61v22.21h1.61s11.84,0,13.71-13.53h.76Z"/>
    <path class="cls-1" d="m171.38,80.82s-2.1,5.52-9.29,5.52c-8.66,0-12.24-4.17-12.24-4.17v-12.92h.76c.98,4.11,3.53,15.95,11.48,15.95,4.78,0,6.25-9.76.8-15.75l-6.88-6.53c-6.34-5.99-8.71-12.72-5-20.05,0,0,2.19-5.11,9.25-5.11,7.64,0,11.48,3.23,11.48,3.23v11.31h-.76c-.85-3.57-3.57-13.39-10.72-13.39-4.82,0-6.57,8.88-.76,14.6l6.88,6.86c5.9,5.85,8.35,13.12,5,20.46Z"/>
  </g>
</svg>