<?xml version="1.0" encoding="UTF-8"?>
<svg id="Capa_6" data-name="Capa 6" xmlns="http://www.w3.org/2000/svg" viewBox="0 0 679.64 373.01">
  <defs>
    <style>
      .cls-1, .cls-2 {
        fill: #fff;
      }

      .cls-2 {
        font-family: SunfloraRegular, Sunflora;
        font-size: 73.75px;
      }

      .cls-3, .cls-4 {
        fill: none;
        stroke: #fff;
        stroke-miterlimit: 10;
        stroke-width: 2px;
      }

      .cls-4 {
        stroke-linecap: round;
      }

      .cls-5 {
        letter-spacing: .02em;
      }
    </style>
  </defs>
  <g>
    <path class="cls-3" d="m63.07,328.67c3.52-98.78,45.69-130.54,45.69-130.54l.88-6.38-6.07-.02s-51.27,40.75-63.26,119.93"/>
    <path class="cls-3" d="m111.23,194.26c2.11,2.61,12.86,16.44,10.54,35.92-1.7,14.29-10.11,28.99-13.83,28.02-3.25-.84-4.4-13.99,3.29-63.95Z"/>
    <path class="cls-3" d="m106.65,190.08c-3.58-2.93-13.14-9.95-27.43-11.44-15.77-1.64-29.05,5.68-31.79,7.03-17.03,8.42,12.16,4.79,59.22,4.41Z"/>
    <path class="cls-3" d="m111.48,192.75c3.35-.22,20.88-1.01,35.58,12.05,10.78,9.58,14.83,29.95,11.9,32.42-2.55,2.15-10.79-9.58-47.48-44.47Z"/>
    <path class="cls-3" d="m109.3,190.37c.39-4.92.66-17.46-7.67-29.37-9.2-13.15-31.69-17.76-34.43-15.25-2.28,2.09,9.54,9.38,42.1,44.62Z"/>
  </g>
  <g>
    <path class="cls-3" d="m207.08,130.74s26.63-4.45,23.27-48.76c0,0-37.05-9.92-52.31,19.25"/>
    <path class="cls-3" d="m177.9,101.42s10.38-22.8-28.87-39.12c0,0-28.08,24.12-11.52,48.24"/>
    <path class="cls-3" d="m194.89,170.52c23.41,17.65,49.77-9.05,49.77-9.05-14.42-39.77-37.87-30.62-37.87-30.62l-5.51,1.85"/>
    <path class="cls-3" d="m127.12,149.52c-32.91,3.42-45-32.76-45-32.76,35.36-27.2,55.27-6.39,55.27-6.39l2.94,3.32"/>
    <path class="cls-3" d="m194.61,170.21s19.01,19.81-10.12,53.52c0,0-35.76-13.82-30.66-46.3"/>
  </g>
  <path class="cls-3" d="m270.1,251.42c-8.11-3.81-30.5-12.82-44.07-12.82-28.64,0-52.61,19.53-68.8,32.08-9.53,7.39-12.64,11.21-22.82,17.09-12.25,7.08-26.25,15.17-41.42,11.16-3.82-1.01-13.01-4.19-21.41-15.69"/>
  <path class="cls-3" d="m174.48,315.31c-5.9,4.09-11.58,8.47-17.25,12.87"/>
  <path class="cls-3" d="m190.98,305.3c-2.72,1.38-5.39,2.88-8,4.47"/>
  <path class="cls-3" d="m247.94,300.33c-15.15-4.41-31.14-5.17-46.14.24"/>
  <path class="cls-3" d="m270.1,308.92c-2.98-1.4-5.99-2.73-9.04-3.97"/>
  <path class="cls-3" d="m80.84,327.6c-3.55-2.72-6.63-6-9.26-9.6"/>
  <path class="cls-3" d="m138.51,318.71c-3.8,2.81-7.67,5.53-11.64,8.09"/>
  <path class="cls-3" d="m189.28,282.43c-14.27,7.47-26.77,17.72-39.39,27.58"/>
  <path class="cls-3" d="m214.1,274.05c-4.86.63-9.63,1.82-14.2,3.57"/>
  <path class="cls-3" d="m270.1,286.19c-13.77-6.78-28.75-11.99-44.23-12.63"/>
  <path class="cls-3" d="m80.27,309.31c-4.17-2.99-7.8-6.66-11.18-10.5"/>
  <path class="cls-3" d="m94.25,315.36c-2.26-.38-4.46-1.02-6.58-1.89"/>
  <path class="cls-3" d="m142.57,296.66c-11.59,8.92-25.12,18.01-40.19,19.07"/>
  <path class="cls-3" d="m152.56,288.6c-1.38,1.14-2.76,2.28-4.15,3.41"/>
  <path class="cls-3" d="m187.24,263.5c-10.09,5.17-19.05,12.17-27.75,19.35"/>
  <path class="cls-3" d="m199.52,258.39c-1.71.55-3.4,1.16-5.07,1.82"/>
  <path class="cls-3" d="m244.64,258.88c-11.96-4.49-24.97-5.21-37.44-2.54"/>
  <path class="cls-3" d="m269.54,269.3c-5.79-2.72-11.64-5.34-17.6-7.69"/>
  <path class="cls-3" d="m56.46,243.57c-6.19.24-9.57,1.87-15.67,2.97"/>
  <path class="cls-3" d="m103.59,249.89c-6.51-2.79-13.25-4.71-20.07-5.67"/>
  <path class="cls-3" d="m147.87,273.01c-9.7-7.37-20.58-13.4-32.18-17.82"/>
  <path class="cls-3" d="m270.1,125.03v203.49H40.27V125.03c0-61.8,51.45-111.9,114.92-111.9s114.92,50.1,114.92,111.9Z"/>
  <line class="cls-3" x1="194.89" y1="170.52" x2="192.02" y2="167.5"/>
  <line class="cls-3" x1="178.04" y1="101.24" x2="175.67" y2="106.29"/>
  <path class="cls-3" d="m53.13,255.94c-3.07.28-9.29,2-12.33,2.51"/>
  <path class="cls-3" d="m81.82,256.84c-1.56-.42-3.13-.78-4.7-1.08"/>
  <path class="cls-3" d="m127.01,273.74c-11.6-7.29-24.47-12.58-37.87-15.53"/>
  <path class="cls-3" d="m137.09,280.83c-1.08-.85-2.17-1.67-3.28-2.48"/>
  <path class="cls-4" d="m126.97,49.87c-13.87.23-27.56.23-40.9,0"/>
  <path class="cls-4" d="m148.2,49.87h-9.79"/>
  <path class="cls-4" d="m71.25,71.04h-8.03"/>
  <path class="cls-4" d="m122.11,71.04c-13.57.26-26.12.26-39.92,0"/>
  <rect class="cls-3" x="18.21" y="328.53" width="273.33" height="13.97"/>
  <ellipse class="cls-3" cx="164.83" cy="142.1" rx="37.66" ry="37.42"/>
  <g>
    <path class="cls-1" d="m48.72,320.64h6.77s6.77,0,6.77,0c.17,0,.3-.14.3-.3v-1.1s0-1.1,0-1.1c0-.17-.14-.3-.3-.3h-6.77s-6.77,0-6.77,0c-.17,0-.3.14-.3.3v1.1s0,1.1,0,1.1c0,.17.14.3.3.3Z"/>
    <path class="cls-1" d="m50.02,307.39v.09s-.02.94-.02.95c0,.01,0,1.03,0,1.04.02.16.13.29.28.29,0,.01.9.02.91.03l5.45.16h.39s5.97.18,5.97.18c.15,0,.29-.14.29-.29l.04-1.04.04-1.04c0-.15-.11-.29-.26-.29l-.65-.03-4.9-.17-.8-.03-4.11-.14s-2.29-.03-2.32,0c-.16,0-.29.13-.3.29Z"/>
    <path class="cls-1" d="m52.03,296.53v.09s-.04.87-.05.89c0,.03,0,.96,0,.99.02.15.12.27.26.28.01.02.82.05.84.06l5.1.31.36.02,5.58.34c.14,0,.27-.14.27-.28l.08-.99.07-.98c0-.14-.08-.28-.22-.28l-.56-.06-4.62-.34-.76-.05-3.87-.28c-.06-.06-2.14-.06-2.21-.02-.15,0-.27.13-.29.28Z"/>
    <path class="cls-1" d="m54.49,285.61v.08s-.06.8-.07.84c-.01.04,0,.89,0,.93.02.14.11.26.24.28.02.04.75.07.78.09l4.75.47.34.03,5.2.5c.12,0,.26-.14.26-.26l.11-.93.11-.92c0-.12-.06-.27-.18-.27l-.46-.08-4.34-.5-.71-.08-3.64-.43c-.09-.08-2-.09-2.1-.02-.14.01-.26.13-.28.27Z"/>
    <path class="cls-1" d="m57.45,274.67v.08c-.05.04-.08.73-.09.78-.02.06-.01.82,0,.87.02.13.1.24.22.27.02.05.67.09.71.13l4.4.62.31.05,4.81.67c.11,0,.25-.14.25-.25l.15-.87.14-.86c0-.11-.03-.26-.14-.26l-.37-.11-4.06-.67-.66-.1-3.41-.57c-.13-.11-1.85-.12-1.99-.03-.13.02-.25.13-.27.26Z"/>
    <path class="cls-1" d="m60.96,263.76l-.02.07c-.05.05-.08.66-.1.73-.02.07-.02.74,0,.82.02.12.09.23.19.26.03.06.6.11.65.16l4.05.78.29.06,4.42.84c.09,0,.23-.15.23-.24l.19-.81.18-.8c0-.09,0-.24-.1-.24l-.28-.14-3.77-.84-.61-.13-3.17-.71c-.16-.14-1.71-.15-1.88-.04-.12.02-.23.12-.26.24Z"/>
    <path class="cls-1" d="m65.08,252.94l-.02.07c-.06.06-.1.59-.12.67-.02.08-.02.67,0,.76.02.11.08.21.17.25.03.07.52.14.58.19l3.7.94.26.07,4.03,1.01c.08,0,.22-.15.22-.23l.23-.76.21-.74c0-.08.02-.23-.06-.23l-.19-.17-3.49-1.01-.56-.15-2.94-.85c-.19-.17-1.57-.18-1.77-.05-.12.03-.22.12-.25.23Z"/>
    <path class="cls-1" d="m69.85,242.24l-.02.06c-.07.07-.11.53-.14.62-.03.1-.03.6-.01.7s.07.2.15.24c.04.08.44.16.52.22l3.35,1.09.24.08,3.64,1.17c.06,0,.2-.15.2-.21l.27-.7.25-.68c0-.06.05-.22-.01-.22l-.09-.2-3.21-1.17-.51-.18-2.7-.99c-.22-.2-1.4-.17-1.66-.06-.1.05-.2.12-.24.22Z"/>
    <path class="cls-1" d="m75.33,231.74l-.03.06c-.08.09-.13.46-.16.56-.03.11-.03.53-.01.65.01.09.06.18.13.23.04.09.37.18.45.25l3,1.25.22.09,3.25,1.34s.19-.15.19-.2l.3-.64.28-.62s.07-.21.03-.21v-.22s-2.93-1.34-2.93-1.34l-.47-.21-2.47-1.14c-.25-.22-1.26-.21-1.55-.07-.09.05-.19.11-.23.21Z"/>
    <path class="cls-1" d="m81.51,221.47l-.03.05c-.09.1-.14.39-.18.5-.04.13-.04.46-.01.59.01.09.05.16.11.22.05.11.29.2.39.28l2.65,1.41.19.1,2.87,1.51s.17-.15.17-.19l.34-.58.32-.55s.1-.19.07-.19l.09-.25-2.65-1.51-.42-.23-2.24-1.28c-.28-.25-1.12-.24-1.44-.07-.09.05-.17.11-.22.2Z"/>
    <path class="cls-1" d="m88.51,211.48l-.03.05c-.1.11-.16.32-.2.45-.04.14-.04.39-.02.53.01.08.05.15.08.21.06.11.22.23.32.32l2.3,1.56.17.12,2.48,1.68s.16-.16.16-.17l.38-.52.35-.49s.13-.18.11-.18l.18-.28-2.37-1.68-.37-.26-2-1.42c-.32-.28-.98-.29-1.33-.08-.08.05-.16.11-.21.19Z"/>
    <path class="cls-1" d="m96.41,203.28l2.09,1.84,2.09,1.84,1.37-1.54-2.09-1.84-2.09-1.84c-.42-.37-1.05-.33-1.42.08l-.04.04c-.37.41-.33,1.05.08,1.41Z"/>
  </g>
  <line class="cls-3" x1="184.49" y1="223.74" x2="174.04" y2="178.4"/>
  <line class="cls-3" x1="244.65" y1="161.47" x2="201.69" y2="149.75"/>
  <line class="cls-3" x1="230.35" y1="81.99" x2="192.12" y2="116.34"/>
  <line class="cls-3" x1="149.03" y1="62.3" x2="157.47" y2="104.71"/>
  <path class="cls-3" d="m82.13,116.77c15.88,2.65,30.79,7.58,47,11.41"/>
  <path class="cls-3" d="m111.48,190.9c1.19-1.48,7.6-9.08,20.98-9.29,9.81-.15,23.29,7.33,23.58,9.65.25,2.02-9.82.16-44.55-.36Z"/>
  <path class="cls-3" d="m111.57,192.26c1.4-1.29,8.52-8.23,7.7-21.5-.61-9.73-9.16-22.5-11.51-22.6-2.05-.09.61,9.74,3.81,44.1Z"/>
  <g>
    <path class="cls-1" d="m507.5,165.74v60.99h-10.11v-6.4c-2.61,4.77-8.64,6.56-12.47,6.56-9.22,0-17.37-7.21-17.37-20.01s8.64-18.87,20.06-18.87c3.75,0,7.17.9,9.78,2.43v-24.7h10.11Zm-10.11,37.02c0-10.21-5.06-13.53-9.71-13.53-5.95,0-8.56,4.45-8.56,16.77,0,13.04,2.69,17.9,9.29,17.9,5.54,0,8.97-4.05,8.97-9.72v-11.42Z"/>
    <path class="cls-1" d="m545.9,215.4l1.39.73c-1.3,4.21-6.12,10.61-17.04,10.61s-18.02-9.8-18.02-19.28c0-11.42,7.83-19.6,19.07-19.6,11.82,0,17.37,6.08,17.37,18.71h-25.93c.65,7.94,4.73,12.07,10.19,13.28,4.4.97,10.92-.65,12.96-4.45Zm-23.15-10.21h15.98c0-10.21-3.34-15.96-7.83-15.96-4.81,0-8.15,8.18-8.15,15.96Z"/>
    <path class="cls-1" d="m590.39,165.59v61.15h-10.19v-60.99l10.19-.15Z"/>
    <path class="cls-1" d="m628.31,204.06v.77l-.1,21.75v.15h-1.71c-.08,0-.16,0-.23,0,0,0-.07,0-.18,0h-8.05v-6.32c-1.36,3.45-6.08,6.33-11.74,6.33,0,0-9.37,0-9.37-8.26,0-8.83,6.85-9.64,21.11-13.21v-5.02c0-8.42-4.73-12.64-10.35-9.72-2.6,1.3-2.93,2.67-2.36,2.75,1.22.17,2.28.73,3.02,1.79,1.46,2.1.89,4.94-1.23,6.39-2.12,1.38-4.97.89-6.45-1.21-.97-1.54-1.05-3.48-.23-4.86.81-1.38,1.88-3.56,6.36-5.91,3.66-1.94,7.91-1.62,7.91-1.62,10.68,0,13.61,6.64,13.61,16.2Zm-10.27,6.69v-4.01c-7.99,1.78-10.68,5.58-10.68,9.72,0,0,0,5.34,5.3,5.34,2.77,0,4.65-2.19,5.38-4.13v-6.92Z"/>
    <path class="cls-1" d="m659.91,222.36s-3.1,4.37-11.41,4.37c-9.86,0-14.76-3.72-14.76-3.72v-10.21h1.39c1.22,3.16,3.83,12.55,13.37,12.55,5.79,0,6.77-7.29.57-11.34l-8.24-4.94c-7.91-4.78-10.03-11.34-5.54-17.17,0,0,3.1-4.05,11.25-4.05,9.37,0,13.45,2.43,13.45,2.43v9.07h-1.39c-1.06-2.83-3.67-10.12-12.07-10.12-5.3,0-7.58,6.24-.49,10.69l8.23,5.1c7.26,4.46,9.7,11.5,5.63,17.33Z"/>
  </g>
  <g>
    <path class="cls-1" d="m350.27,241.87v27.47h-1.64c-3.38-26.31-29.56-25.01-29.56-25.01h-3.38v46.55h3.38s14.87.58,16.61-14.89h1.64v32.53h-1.64c-1.74-15.47-16.61-14.89-16.61-14.89h-3.38v50.02h-14.01v-101.78h48.58Z"/>
    <path class="cls-1" d="m407.62,312.28v31.37h-48v-101.78h14.01v99.32h3.48s25.6,0,28.88-28.91h1.64Z"/>
    <path class="cls-1" d="m477,293.48c0,28.77-12.07,51.47-33.32,51.47s-33.32-22.7-33.32-51.47,12.07-52.91,33.32-52.91,33.32,24.29,33.32,52.91Zm-16.71,0c0-39.61-5.22-50.45-16.61-50.45s-16.81,10.84-16.81,50.45,5.31,49.01,16.81,49.01,16.61-9.25,16.61-49.01Z"/>
    <path class="cls-1" d="m547.49,341.19v2.46h-8.89c-17.19-.15-14.68-.15-21.44-31.52-3.19-14.89-12.07-14.89-12.07-14.89h-4.54v46.41h-14v-101.78h17c19.22,0,32.74,3.47,32.74,27.61,0,17.64-7.34,24.14-18.84,26.16,6.28-1.01,14.01,5.35,18.74,31.37,1.93,10.99,8.79,13.88,11.3,14.17Zm-26.95-71.71c0-25.15-7.63-25.15-17-25.15h-2.99v50.45h2.99c9.37,0,17-.15,17-25.3Z"/>
    <path class="cls-1" d="m603.18,312.13v31.52h-48.78v-101.78h47.52v27.47h-1.64c-2.22-25.01-28.4-25.01-28.4-25.01h-3.48v46.7h3.48s14.68,0,15.65-15.04h1.64v32.53h-1.64c-.97-15.04-15.65-15.04-15.65-15.04h-3.48v47.71h3.48s25.6,0,29.65-29.06h1.64Z"/>
    <path class="cls-1" d="m657.91,333.09s-4.54,11.86-20.09,11.86c-18.74,0-26.46-8.96-26.46-8.96v-27.76h1.64c2.13,8.82,7.63,34.26,24.82,34.26,10.34,0,13.52-20.96,1.74-33.83l-14.87-14.02c-13.72-12.87-18.83-27.32-10.82-43.08,0,0,4.73-10.99,19.99-10.99,16.52,0,24.82,6.94,24.82,6.94v24.29h-1.64c-1.84-7.66-7.73-28.77-23.18-28.77-10.43,0-14.2,19.08-1.64,31.37l14.87,14.74c12.75,12.58,18.06,28.19,10.82,43.95Z"/>
  </g>
  <text class="cls-2" transform="translate(299.56 224.53)"><tspan x="0" y="0">Ca</tspan><tspan class="cls-5" x="85.4" y="0">s</tspan><tspan x="118.81" y="0">a</tspan></text>
</svg>